<svg width="50" height="19" viewBox="0 0 50 19" fill="none" xmlns="http://www.w3.org/2000/svg">
<g clip-path="url(#clip0_1_94)">
<path d="M10.2168 16.8742C10.0766 16.9091 9.93367 16.9401 9.79181 16.9663C9.42096 17.0352 9.17579 17.3919 9.24438 17.7631C9.27826 17.9457 9.38197 18.0978 9.52277 18.1971C9.66789 18.2992 9.85258 18.3453 10.0408 18.3103C10.2097 18.279 10.38 18.2421 10.5471 18.2004C10.9133 18.1092 11.1364 17.7383 11.045 17.3722C10.9539 17.0059 10.5832 16.783 10.2168 16.8742Z" fill="#867777"/>
<path d="M15.2708 7.71419C15.3187 7.85847 15.4101 7.97625 15.5256 8.05763C15.6967 8.17819 15.9207 8.21875 16.1344 8.14807C16.4928 8.02909 16.6869 7.64268 16.5684 7.28452C16.5144 7.12124 16.4545 6.95745 16.3906 6.79798C16.2504 6.44752 15.8529 6.2769 15.5023 6.41708C15.152 6.55719 14.9813 6.95482 15.1216 7.30538C15.1752 7.43942 15.2255 7.57701 15.2708 7.71419Z" fill="#867777"/>
<path d="M12.4376 15.8999C12.3171 15.9795 12.1927 16.0565 12.0673 16.1287C11.7403 16.3173 11.6283 16.7354 11.8168 17.0622C11.868 17.1512 11.9362 17.2238 12.0148 17.2794C12.2256 17.4277 12.5119 17.4499 12.7503 17.3126C12.8993 17.2267 13.0475 17.1352 13.1911 17.0403C13.5058 16.8323 13.5925 16.4083 13.3844 16.0934C13.1764 15.7783 12.7525 15.6918 12.4376 15.8999Z" fill="#867777"/>
<path d="M16.9933 9.62254C16.9784 9.24534 16.6607 8.95175 16.2834 8.96647C15.9066 8.98135 15.6127 9.29916 15.6275 9.67622C15.6332 9.82038 15.6347 9.9667 15.6314 10.1107C15.6261 10.3473 15.7417 10.5581 15.9215 10.6849C16.0287 10.7603 16.1586 10.8059 16.2996 10.8091C16.6768 10.8175 16.9894 10.5183 16.9978 10.1409C17.0015 9.96886 17.0001 9.79451 16.9933 9.62254Z" fill="#867777"/>
<path d="M15.159 14.1025C14.8565 13.8756 14.4286 13.9372 14.2021 14.2391C14.1153 14.3547 14.024 14.4689 13.9304 14.5789C13.6859 14.8661 13.7205 15.2976 14.0077 15.5422C14.0241 15.5561 14.0406 15.5689 14.0578 15.5809C14.3433 15.7822 14.7402 15.7359 14.9711 15.465C15.0828 15.3338 15.1917 15.1974 15.2954 15.0593C15.522 14.7573 15.4606 14.3291 15.159 14.1025Z" fill="#867777"/>
<path d="M16.1639 11.6308C15.8038 11.5179 15.4203 11.7183 15.3074 12.0785C15.2642 12.2161 15.2163 12.3543 15.1647 12.4897C15.0512 12.7878 15.1599 13.1157 15.4092 13.2914C15.4549 13.3236 15.5052 13.3508 15.5599 13.3715C15.9125 13.506 16.3074 13.3291 16.4418 12.9764C16.5032 12.8154 16.5601 12.6509 16.6116 12.4873C16.7243 12.1271 16.524 11.7437 16.1639 11.6308Z" fill="#867777"/>
<path d="M7.23524 16.9732C6.62424 16.8635 6.03812 16.6766 5.48233 16.4161C5.47575 16.4127 5.46987 16.4087 5.46296 16.4056C5.33199 16.3439 5.20123 16.2779 5.0745 16.2089C5.07406 16.2084 5.07326 16.2081 5.07257 16.2078C4.84004 16.0797 4.6131 15.9381 4.39264 15.7829C1.17784 13.5183 0.404874 9.06041 2.66962 5.84564C3.16208 5.14686 3.75803 4.56388 4.42242 4.10183C4.43061 4.09613 4.43879 4.09046 4.44691 4.08473C6.78813 2.47155 9.96716 2.36284 12.4532 4.02052L11.9192 4.79199C11.7708 5.00672 11.8621 5.1632 12.122 5.13981L14.4413 4.93217C14.7015 4.90878 14.8571 4.68371 14.7871 4.43244L14.1643 2.18845C14.0946 1.93689 13.916 1.90677 13.7675 2.12147L13.2323 2.89476C11.4079 1.67008 9.2197 1.20309 7.04781 1.57971C6.82906 1.61757 6.61338 1.66391 6.40066 1.71784C6.39902 1.71814 6.3977 1.71832 6.39639 1.71861C6.38817 1.72062 6.37983 1.72329 6.37183 1.72552C4.49898 2.20647 2.86494 3.29879 1.69895 4.85729C1.68912 4.86895 1.679 4.88035 1.66972 4.89303C1.63094 4.94525 1.59246 4.99868 1.55479 5.0521C1.49317 5.13966 1.43244 5.22941 1.37433 5.31916C1.36706 5.32998 1.36151 5.34098 1.35515 5.35191C0.392961 6.84291 -0.0711402 8.56667 0.00845139 10.3216C0.0086341 10.3273 0.00830521 10.3331 0.00845139 10.3391C0.016162 10.5105 0.0297562 10.6843 0.0482106 10.8554C0.0491973 10.8664 0.0516457 10.8769 0.0535094 10.8879C0.0725851 11.06 0.096521 11.2324 0.126523 11.4048C0.431441 13.1639 1.26127 14.7469 2.50473 15.9786C2.50762 15.9815 2.51062 15.9846 2.51354 15.9876C2.51456 15.9887 2.5157 15.9893 2.51668 15.9904C2.85076 16.3199 3.21415 16.6247 3.60542 16.9003C4.62937 17.6218 5.76956 18.0987 6.99406 18.3184C7.36559 18.3852 7.7205 18.1379 7.78716 17.7665C7.85378 17.3949 7.60667 17.0397 7.23524 16.9732Z" fill="#867777"/>
<path d="M8.08047 4.43042C7.77486 4.43042 7.52731 4.67818 7.52731 4.98336V10.4922L12.5656 13.0967C12.6467 13.1386 12.7335 13.1584 12.8189 13.1584C13.019 13.1584 13.2123 13.0494 13.3106 12.8593C13.4507 12.5879 13.3447 12.2545 13.0733 12.1144L8.63301 9.81882V4.98336C8.63297 4.67818 8.38572 4.43042 8.08047 4.43042Z" fill="#867777"/>
</g>
<path d="M40.2494 14.6407C43.5631 14.6407 46.2494 11.9545 46.2494 8.64075C46.2494 5.32704 43.5631 2.64075 40.2494 2.64075C36.9357 2.64075 34.2494 5.32704 34.2494 8.64075C34.2494 11.9545 36.9357 14.6407 40.2494 14.6407Z" stroke="#867777" stroke-width="2" stroke-linecap="round" stroke-linejoin="round"/>
<path d="M47.7494 16.1407L44.4869 12.8782" stroke="#867777" stroke-width="2" stroke-linecap="round" stroke-linejoin="round"/>
<defs>
<clipPath id="clip0_1_94">
<rect width="17" height="17" fill="white" transform="translate(-0.000610352 1.39075)"/>
</clipPath>
</defs>
</svg>
